<?xml version="1.0" encoding="utf-8"?>
<!-- Generator: Adobe Illustrator 22.1.0, SVG Export Plug-In . SVG Version: 6.00 Build 0)  -->
<svg version="1.1" id="Layer_1" xmlns="http://www.w3.org/2000/svg" xmlns:xlink="http://www.w3.org/1999/xlink" x="0px" y="0px"
	 width="33.3px" height="70.8px" viewBox="0 0 33.3 70.8" style="enable-background:new 0 0 33.3 70.8;" xml:space="preserve">
<style type="text/css">
	.st0{clip-path:url(#SVGID_2_);}
	.st1{fill:none;stroke:#000000;stroke-miterlimit:10;}
</style>
<g>
	<defs>
		<rect id="SVGID_1_" width="33.3" height="70.8"/>
	</defs>
	<clipPath id="SVGID_2_">
		<use xlink:href="#SVGID_1_"  style="overflow:visible;"/>
	</clipPath>
	<g class="st0">
		<path class="st1" d="M0,35.4c8.3,0,8.3-34.9,16.6-34.9s8.3,34.9,16.6,34.9"/>
		<path class="st1" d="M0,35.4c8.3,0,8.3-27.9,16.6-27.9s8.3,27.9,16.6,27.9"/>
		<path class="st1" d="M0,35.4c8.3,0,8.3-20.9,16.6-20.9s8.3,20.9,16.6,20.9"/>
		<path class="st1" d="M0,35.4c8.3,0,8.3-14,16.6-14s8.3,14,16.6,14"/>
		<path class="st1" d="M0,35.4c8.3,0,8.3-7,16.6-7s8.3,7,16.6,7"/>
		<path class="st1" d="M0,35.4c8.3,0,8.3,7,16.6,7s8.3-7,16.6-7"/>
		<path class="st1" d="M0,35.4c8.3,0,8.3,14,16.6,14s8.3-14,16.6-14"/>
		<path class="st1" d="M0,35.4c8.3,0,8.3,20.9,16.6,20.9s8.3-20.9,16.6-20.9"/>
		<path class="st1" d="M0,35.4c8.3,0,8.3,27.9,16.6,27.9s8.3-27.9,16.6-27.9"/>
		<path class="st1" d="M0,35.4c8.3,0,8.3,34.9,16.6,34.9s8.3-34.9,16.6-34.9"/>
	</g>
</g>
</svg>
