<?xml version="1.0" encoding="utf-8"?>
<!-- Generator: Adobe Illustrator 24.3.0, SVG Export Plug-In . SVG Version: 6.00 Build 0)  -->
<svg version="1.1" id="Layer_1" xmlns="http://www.w3.org/2000/svg" xmlns:xlink="http://www.w3.org/1999/xlink" x="0px" y="0px"
	 viewBox="0 0 113 240.6" style="enable-background:new 0 0 113 240.6;" xml:space="preserve">
<style type="text/css">
	.st0{fill:none;stroke:#000000;stroke-width:3;stroke-miterlimit:10;}
	.st1{fill:none;stroke:#000000;stroke-miterlimit:10;}
</style>
<path class="st0" d="M0,120.3c28.3,0,28.3-118.8,56.5-118.8S84.8,120.3,113,120.3"/>
<path class="st1" d="M0,120.3c28.3,0,28.3-95,56.5-95s28.3,95,56.5,95"/>
<path class="st1" d="M0,120.3c28.3,0,28.3-71.1,56.5-71.1s28.3,71.1,56.5,71.1"/>
<path class="st1" d="M0,120.3c28.3,0,28.3-47.7,56.5-47.7s28.3,47.7,56.5,47.7"/>
<path class="st1" d="M0,120.3c28.3,0,28.3-23.8,56.5-23.8s28.3,23.8,56.5,23.8"/>
<path class="st1" d="M0,120.3c28.3,0,28.3,23.8,56.5,23.8s28.3-23.8,56.5-23.8"/>
<path class="st1" d="M0,120.3c28.3,0,28.3,47.7,56.5,47.7s28.3-47.7,56.5-47.7"/>
<path class="st1" d="M0,120.3c28.3,0,28.3,71.1,56.5,71.1s28.3-71.1,56.5-71.1"/>
<path class="st1" d="M0,120.3c28.3,0,28.3,95,56.5,95s28.3-95,56.5-95"/>
<path class="st0" d="M0,120.3c28.3,0,28.3,118.8,56.5,118.8S84.8,120.3,113,120.3"/>
</svg>
