<?xml version="1.0" encoding="utf-8"?>
<!-- Generator: Adobe Illustrator 22.1.0, SVG Export Plug-In . SVG Version: 6.00 Build 0)  -->
<svg version="1.1" id="Layer_1" xmlns="http://www.w3.org/2000/svg" xmlns:xlink="http://www.w3.org/1999/xlink" x="0px" y="0px"
	 width="916px" height="916px" viewBox="0 0 916 916" style="enable-background:new 0 0 916 916;" xml:space="preserve">
<style type="text/css">
	.st0{fill:none;stroke:#FFFFFF;stroke-width:12;}
	.st1{fill:none;stroke:#FFFFFF;stroke-width:6;}
	.st2{fill:#FFFFFF;}
</style>
<circle class="st0" cx="458" cy="458" r="452"/>
<circle class="st1" cx="458" cy="458" r="412"/>
<circle class="st1" cx="458" cy="458" r="399"/>
<path class="st2" d="M313.8,785l-0.8,0.4l-10.2,23.1h-31.2v5.2h28.9h97.4H472v-5.2h-76.4l-10.2-23.1l-0.8-0.4
	c-7.2-4-14.4-6.7-21.6-8.2l-2.3-110.9c7.5-4.2,12.4-12.1,12.4-20.8c0-9.2-5.4-17.6-13.8-21.6c-0.1,0-0.2-0.1-0.2-0.1v-15.3h4.5V603
	h-4.5l0,0h-7.2v-37h-5.2v37h-7.2l0,0H335v5.2h4.5v15.3c-0.1,0-0.2,0.1-0.3,0.1c-8.3,3.9-13.7,12.4-13.7,21.6
	c0,8.7,4.8,16.6,12.3,20.8l-2.3,110.8C328.2,778.3,321,781,313.8,785z M332.2,808.6c1.3-8.3,8.4-14.6,17-14.6s15.8,6.4,17,14.6
	H332.2z M389.9,808.6h-18.3c-1.3-11.1-10.8-19.8-22.3-19.8s-21,8.7-22.3,19.8h-18.3l8.6-19.4c21.3-11.6,42.7-11.6,64.2,0
	L389.9,808.6z M353.8,608.2v13.6c-0.1,0-0.2,0-0.3,0c-0.3-0.1-0.6-0.1-0.9-0.1c-0.4-0.1-0.8-0.1-1.3-0.2c-0.1,0-0.3,0-0.4,0
	c-1.1-0.1-2.1-0.1-3.2,0c-0.2,0-0.4,0-0.6,0c-0.4,0-0.8,0.1-1.2,0.1c-0.4,0-0.7,0.1-1.1,0.2c-0.1,0-0.2,0-0.3,0v-13.6H353.8z
	 M341.3,628.3c0.5-0.2,1-0.5,1.6-0.7c3.7-1.3,7.8-1.4,11.5-0.3c0.4,0.1,0.8,0.2,1.1,0.3c0.5,0.2,1.1,0.4,1.5,0.6
	c6.5,3.1,10.7,9.7,10.7,16.8c0,1.1-0.1,2.2-0.3,3.3h-36.6c-0.2-1.1-0.3-2.2-0.3-3.3C330.6,638,334.8,631.4,341.3,628.3z
	 M332.7,653.7h33c-1.9,3.6-4.9,6.6-8.8,8.4c-4.8,2.2-10.7,2.2-15.5,0C337.6,660.3,334.6,657.3,332.7,653.7z M342.9,668.1
	c2,0.6,4.1,0.9,6.3,0.9c2.2,0,4.3-0.3,6.3-0.9l2.3,107.8c-5.7-0.8-11.5-0.8-17.2,0L342.9,668.1z"/>
<path class="st2" d="M393.2,729.7h-24.1v5.2h24.1c2.8,0,5.4-1.1,7.3-3c2-1.9,3-4.5,3-7.3c0-5.7-4.6-10.3-10.3-10.3h-3.6
	c-1.8-7.2-8.4-12.4-16-12.4c-3.3,0-6.4,0.9-9.1,2.7l2.9,4.4c1.9-1.2,4-1.9,6.2-1.9c5.8,0,10.6,4.3,11.2,10.1l0.3,2.3h8.2
	c2.8,0,5.1,2.3,5.1,5.1c0,1.4-0.5,2.6-1.5,3.6C395.9,729.2,394.6,729.7,393.2,729.7z"/>
<path class="st2" d="M282.1,680.7c7.9,0,14.3-6.4,14.3-14.3c0-7.9-6.4-14.3-14.3-14.3s-14.3,6.4-14.3,14.3
	C267.8,674.2,274.2,680.7,282.1,680.7z M282.1,657.2c5,0,9.1,4.1,9.1,9.1s-4.1,9.1-9.1,9.1s-9.1-4.1-9.1-9.1
	S277.1,657.2,282.1,657.2z"/>
<path class="st2" d="M284.7,636.3h-5.2v10.3h5.2V636.3z"/>
<path class="st2" d="M262.7,643.3L259,647l7.3,7.3l3.7-3.7L262.7,643.3z"/>
<path class="st2" d="M262.4,663.7H252v5.2h10.4V663.7z"/>
<path class="st2" d="M262.7,689.4l7.3-7.3l-3.7-3.7l-7.3,7.3L262.7,689.4z"/>
<path class="st2" d="M284.7,686h-5.2v10.3h5.2V686z"/>
<path class="st2" d="M301.5,689.4l3.7-3.7l-7.3-7.3l-3.7,3.7L301.5,689.4z"/>
<path class="st2" d="M312.2,663.7h-10.4v5.2h10.4V663.7z"/>
<path class="st2" d="M301.5,643.3l-7.3,7.3l3.7,3.7l7.3-7.3L301.5,643.3z"/>
<path class="st2" d="M643.1,717.2v-13.5l2.9-2.9v-10h-8.8v-11l2.9-5.9v-6.6h-52.8v-5.9h-12.9l2.1-4.3c0.5-1,1.5-1.6,2.6-1.6h2.2
	v-5.9h-2.2c-3.3,0-6.4,1.9-7.9,4.9l-3.4,6.9h-7v-7.3l10.6-7.9l-3.5-4.7l-7,5.3V638H555v8.8l-7-5.3l-3.5,4.7l10.6,7.9v7.3h-7
	l-3.4-6.9c-1.5-3-4.5-4.9-7.9-4.9h-2.2v5.9h2.2c1.1,0,2.1,0.6,2.6,1.6l2.1,4.3h-12.9v5.9h-52.8v6.6l2.9,5.9v11H470v10l2.9,2.9V726
	H470v5.9h2.9v76.3H470v5.9h176v-5.9h-2.9v-76.3h2.9V726h-2.9V717.2z M587.3,673.2h46.6l-2.6,5.2v12.4h-44V673.2z M534.5,667.3h46.9
	v5.9h-46.9V667.3z M534.5,679.1h46.9v11.7h-46.9V679.1z M528.7,673.2v17.6h-44v-12.4l-2.6-5.2L528.7,673.2L528.7,673.2z
	 M484.7,808.1h-5.9v-76.3h5.9V808.1z M484.7,726h-5.9v-5.9h5.9V726z M502.3,726h-2.9v5.9h2.9v76.3h-11.7v-76.3h2.9V726h-2.9v-5.9
	h11.7V726z M514,808.1h-5.9v-76.3h5.9V808.1z M514,726h-5.9v-5.9h5.9V726z M531.6,726h-2.9v5.9h2.9v76.3h-11.7v-76.3h2.9V726h-2.9
	v-5.9h11.7V726z M543.3,808.1h-5.9v-76.3h5.9V808.1z M543.3,726h-5.9v-5.9h5.9V726z M566.8,726h-2.9v5.9h2.9v76.3h-17.6v-76.3h2.9
	V726h-2.9v-5.9h17.6V726z M578.5,808.1h-5.9v-76.3h5.9V808.1z M578.5,726h-5.9v-5.9h5.9V726z M596.1,726h-2.9v5.9h2.9v76.3h-11.7
	v-76.3h2.9V726h-2.9v-5.9h11.7V726z M607.9,808.1H602v-76.3h5.9V808.1z M607.9,726H602v-5.9h5.9V726z M625.5,726h-2.9v5.9h2.9v76.3
	h-11.7v-76.3h2.9V726h-2.9v-5.9h11.7V726z M637.2,808.1h-5.9v-76.3h5.9V808.1z M637.2,726h-5.9v-5.9h5.9V726z M640.1,698.4l-2.9,2.9
	v12.9H478.8v-12.9l-2.9-2.9v-1.7h164.3v1.7H640.1z"/>
<path class="st0" d="M388,336.8L598,458L388,579.2V336.8z"/>
<path class="st2" d="M164,358c-14.3,0-26,11.6-26,25.9c0,11.8,8.1,27.3,15.8,34.3l0.8,0.7h1.8v4.2h-5v14c0,4.6,3.8,8.3,8.4,8.3h8.7
	c4.6,0,8.4-3.7,8.4-8.3v-14h-5v-4.2h1.7l0.8-0.7c6.7-6.2,15.9-21.5,15.9-34.3C190,369.6,178.3,358,164,358z M171.1,383.9
	c0,10.5-3,23.4-5.4,29.7h-3.5c-2.4-6.2-5.3-19.1-5.3-29.7c0-12.7,4.2-20.7,7.1-20.7C166.9,363.2,171.1,371.3,171.1,383.9z
	 M143.2,383.9c0-8.4,5-15.5,12.1-18.8c-2.4,5-3.7,12-3.7,18.8c0,9.7,2.4,22,5,29.7h-0.1C150.1,407.2,143.2,393.9,143.2,383.9z
	 M171.5,437.1c0,1.7-1.4,3.1-3.1,3.1h-8.7c-1.7,0-3.1-1.4-3.1-3.1v-8.7h15L171.5,437.1L171.5,437.1z M161.5,423.1v-4.2h4.9v4.2
	H161.5z M171.2,413.7c2.7-7.8,5.1-20.1,5.1-29.7c0-6.8-1.3-13.8-3.7-18.8c7.2,3.3,12.1,10.5,12.1,18.8
	C184.8,394.2,177.1,407.7,171.2,413.7z"/>
<path class="st2" d="M262,291c-14.3,0-26,11.6-26,25.9c0,11.8,8.1,27.3,15.8,34.3l0.8,0.7h1.8v4.2h-5v14c0,4.6,3.8,8.3,8.4,8.3h8.7
	c4.6,0,8.4-3.7,8.4-8.3v-14h-5v-4.2h1.7l0.8-0.7c6.7-6.2,15.9-21.5,15.9-34.3C288,302.6,276.3,291,262,291z M269.1,316.9
	c0,10.5-3,23.4-5.4,29.7h-3.5c-2.4-6.2-5.3-19.1-5.3-29.7c0-12.7,4.2-20.7,7.1-20.7C264.9,296.2,269.1,304.3,269.1,316.9z
	 M241.2,316.9c0-8.4,5-15.5,12.1-18.8c-2.4,5-3.7,12-3.7,18.8c0,9.7,2.4,22,5,29.7h-0.1C248.1,340.2,241.2,326.9,241.2,316.9z
	 M269.5,370.1c0,1.7-1.4,3.1-3.1,3.1h-8.7c-1.7,0-3.1-1.4-3.1-3.1v-8.7h15L269.5,370.1L269.5,370.1z M259.5,356.1v-4.2h4.9v4.2
	H259.5z M269.2,346.7c2.7-7.8,5.1-20.1,5.1-29.7c0-6.8-1.3-13.8-3.7-18.8c7.2,3.3,12.1,10.5,12.1,18.8
	C282.8,327.2,275.1,340.7,269.2,346.7z"/>
<path class="st2" d="M713.4,330.8c-2.2-3.6-6.1-6.8-12.4-6.8v5.2c8.7,0,9.7,8.8,9.8,9.8h5.2c0-0.4,0.9-9.8,9.8-9.8V324
	C719.5,324.1,715.6,327.2,713.4,330.8z"/>
<path class="st2" d="M730.6,276.6c-1.6-2-4.2-3.6-8-3.6v5.2c4.6,0,5.3,4.5,5.3,5.4h5.2c0-0.6,0.6-5.4,5.3-5.4V273
	C734.8,273,732.2,274.6,730.6,276.6z"/>
<path class="st1" d="M577.2,174.8C577.2,174.8,577.1,174.8,577.2,174.8h-0.8c-0.7-10.6-9.4-18.9-20.2-18.9
	c-10.7,0-19.5,8.4-20.2,18.9h-0.7c-5.7,0.3-10.3,5-10.3,10.8s4.6,10.5,10.3,10.8h41.9c6,0,10.8-4.8,10.8-10.8
	S583.2,174.8,577.2,174.8z"/>
<path class="st1" d="M657.6,214.4L657.6,214.4h-1.1c-0.9-14.1-12.6-25.2-26.9-25.2c-14.3,0-26,11.1-26.9,25.2h-1
	c-7.7,0.4-13.8,6.6-13.8,14.4c0,7.7,6.1,14,13.8,14.4c0,0,55.8,0,55.9,0c8,0,14.4-6.5,14.4-14.4S665.6,214.4,657.6,214.4z"/>
</svg>
