<?xml version="1.0" encoding="utf-8"?>
<!-- Generator: Adobe Illustrator 22.1.0, SVG Export Plug-In . SVG Version: 6.00 Build 0)  -->
<svg version="1.1" id="Layer_1" xmlns="http://www.w3.org/2000/svg" xmlns:xlink="http://www.w3.org/1999/xlink" x="0px" y="0px"
	 width="1533.9px" height="182.2px" viewBox="0 0 1533.9 182.2" style="enable-background:new 0 0 1533.9 182.2;"
	 xml:space="preserve">
<style type="text/css">
	.st0{fill:#FFFFFF;}
</style>
<g>
	<g>
		<path class="st0" d="M49.9,134.7c6.1,0,11.5-1.6,16.1-4.9c4.7-3.3,7-8.2,7-14.9c0-6.6-2.5-11.7-7.6-15.2c-5-3.5-12.2-6.6-21.5-9.2
			c-9.3-2.6-16-4.9-20.2-6.8c-4.2-1.9-8.2-4.5-11.9-7.7C4.3,69.7,0.5,59.9,0.5,46.7c0-10.8,3.9-20.1,11.6-27.9
			C19.8,11,30.4,7.1,43.7,7.1c6.4,0,13.1,0.9,20.1,2.8c7,1.9,11.3,2.8,13,2.8c1.7,0,3.2-1.2,4.6-3.6h2l1.3,36.8h-2.9
			c-5.8-10.6-11.9-19-18.3-25.4c-6.4-6.4-13.3-9.6-20.8-9.6c-7.5,0-13.3,1.7-17.4,5.2c-4.1,3.5-6.2,8.1-6.2,13.9
			c0,5.8,2.5,10.2,7.4,13.3c4.9,3.1,11,5.6,18.1,7.6c7.2,1.9,11.9,3.3,14.1,4c2.2,0.7,5,1.7,8.4,3c3.3,1.3,6.1,2.6,8.2,4
			c2.1,1.4,4.4,3.2,6.7,5.3c2.4,2.1,4.2,4.5,5.6,7c3.3,5.8,4.9,12.8,4.9,20.8c0,13.1-4.1,23.7-12.3,31.6c-8.2,8-19,11.9-32.3,11.9
			c-6.9,0-14.9-0.9-23.8-2.7S10.3,133,9.3,133c-1.7,0-3.3,1.8-4.9,5.5H1.8L0,95.1h3.1c5.3,10.6,12.2,19.8,20.5,27.7
			C31.9,130.7,40.7,134.7,49.9,134.7z"/>
	</g>
	<g>
		<path class="st0" d="M115,126.8c-7.8-7.8-11.7-18.9-11.7-33.4c0-14.5,4.2-25.7,12.5-33.5c8.3-7.8,20-11.8,35.1-11.8
			c15.1,0,26.3,3.6,33.7,10.8c7.4,7.2,11.1,18.3,11.1,33.1c0,31-15.4,46.5-46.3,46.5C134.2,138.5,122.8,134.6,115,126.8z
			 M160.7,100.8V85.3c0-11.8-0.6-20.4-1.9-25.8c-1.3-5.4-4.2-8.1-8.8-8.1c-2.7,0-4.8,0.8-6.5,2.3c-1.6,1.5-2.8,4-3.6,7.6
			c-1.1,5.5-1.6,13.8-1.6,25v14.2c0,13.2,0.4,21.2,1.2,23.9c0.8,2.7,1.6,4.9,2.5,6.6c1.3,2.9,3.9,4.4,7.8,4.4c4.7,0,7.8-2.7,9.3-8.2
			C160.2,123.1,160.7,114.4,160.7,100.8z"/>
	</g>
	<g>
		<path class="st0" d="M307.4,136.7h-41.6l-2-13.3c-1.9,4.9-4.8,8.6-8.7,11.2s-9.5,3.9-17,3.9c-18.8,0-28.2-10.1-28.2-30.4V53.2
			h-10.2v-3.3h44.1v62.5c0,7.3,0.5,12.1,1.5,14.4c1,2.3,3.1,3.5,6.2,3.5c3.1,0,5.9-1.9,8.3-5.6c2.4-3.8,3.6-9,3.6-15.7V53.2h-8.4
			v-3.3h42.3v83.5h10V136.7z"/>
	</g>
	<g>
		<path class="st0" d="M311.4,49.9h43.9v16.8c1.9-5.6,4.9-10.1,8.9-13.5c4-3.4,10.1-5.1,18.2-5.1c18.8,0,28.2,10.1,28.2,30.4v54.9
			H421v3.3h-51.6v-3.3h7.5V74.2c0-7.3-0.5-12-1.5-14.1c-1-2.1-2.7-3.2-5.3-3.2c-3.9,0-7.3,2.6-10.3,7.7c-3,5.1-4.5,11.3-4.5,18.6
			v50.3h7.8v3.3h-51.8v-3.3h10V53.2h-10V49.9z"/>
	</g>
	<g>
		<path class="st0" d="M485.3,136.7l-2-12.8c-4.1,9.7-12.5,14.6-25.1,14.6c-10.5,0-18.6-3.8-24.3-11.3c-5.8-7.5-8.7-18.8-8.7-33.7
			c0-30.3,12-45.4,36.1-45.4c10.7,0,17.7,3,21.1,8.9V3.3h-11.1V0h45.6v133.4h8.9v3.3H485.3z M462.3,124.4c1.3,4.2,3.8,6.3,7.4,6.3
			c3.6,0,6.7-1.6,9.3-4.7c2.6-3.2,3.9-7.8,3.9-14V72.2c0-5.2-1-9.7-3.1-13.3c-2.1-3.6-5.1-5.5-9.1-5.5c-4,0-6.7,2.7-8.2,8
			c-1.5,5.3-2.2,14.7-2.2,28.1V99C460.3,111.7,461,120.2,462.3,124.4z"/>
	</g>
	<g>
		<path class="st0" d="M532.9,138.5v-32.6h2.2c3.2,10.6,7.4,18,12.8,22.2c5.3,4.3,12,6.4,20,6.4c12.4,0,18.6-3.9,18.6-11.8
			c0-3.4-1.5-6-4.6-7.7c-4.7-2.7-10.8-4.7-18.2-6.2c-8.3-2.2-15.2-5.1-20.8-8.7c-6.7-4.4-10-11.3-10-20.8s2.9-17,8.7-22.7
			c5.8-5.6,13.6-8.5,23.3-8.5c6,0,12.1,1.4,18.4,4.2c2.3,1,4.1,1.5,5.3,1.5c1.2,0,2.2-0.4,3.1-1.3c0.8-0.8,1.9-2.4,3.1-4.7h2v27.9
			h-2.2c-6.2-15.8-15.8-23.7-28.8-23.7c-5.7,0-10,1-12.8,3c-2.8,2-4.2,4.5-4.2,7.6c0,1.8,0.4,3.3,1.3,4.3c0.8,1,1.5,1.8,2,2.3
			c0.5,0.5,1.3,1,2.4,1.5c1.1,0.5,2,1,2.7,1.3c0.7,0.3,1.9,0.7,3.4,1.2c1.5,0.5,2.6,0.8,3.4,0.9c8.3,2.1,14.2,3.9,17.9,5.4
			c3.6,1.5,7.1,3.4,10.4,5.6c6.7,4.6,10,12.1,10,22.3c0,10.3-3,18-9.1,23.3c-6.1,5.3-14.4,7.9-25,7.9c-7.5,0-14.8-1.8-21.9-5.3
			c-1.5-1-2.6-1.5-3.5-1.5c-2.7,0-5.3,2.2-7.8,6.7H532.9z"/>
	</g>
</g>
<g>
	<g>
		<path class="st0" d="M653,107c-9.1,0-15.9-2.5-20.4-7.4c-4.5-4.9-6.8-12.1-6.8-21.5c0-9.4,2.4-16.7,7.3-22.1
			c4.8-5.4,11.7-8.1,20.5-8.1c8.9,0,15.5,2.6,20,7.7c4.5,5.1,6.8,12.4,6.8,21.8c0,9.4-2.3,16.7-6.8,21.9
			C669,104.4,662.2,107,653,107z M663.5,80.8v-6.1c0-10-0.5-16.3-1.5-18.9c-1.1-3-2.7-4.9-4.7-5.6c-1.1-0.4-2.5-0.7-4.2-0.7
			c-1.6,0-3,0.2-4.2,0.7c-1.2,0.4-2.1,1.2-2.9,2.3c-0.8,1.1-1.4,2.2-1.8,3.4c-0.5,1.2-0.8,2.9-1.1,5.1c-0.3,3.2-0.5,7.8-0.5,14V81
			c0,6.7,0.3,11.4,0.8,14.2c0.5,2.8,1.2,4.8,1.9,6c1.7,2.7,4.3,4,7.9,4c4.3,0,7.1-1.8,8.4-5.4C662.9,96.2,663.5,89.8,663.5,80.8z"/>
	</g>
	<g>
		<path class="st0" d="M692,48.8h42.6l0.8,17H734c-2-5.9-4.4-9.9-7-12c-2.7-2.1-6.6-3.2-11.8-3.2h-2.3v26.6h3.7c2.6,0,4.8-1,6.6-2.9
			c1.7-1.9,2.9-4.5,3.6-7.9h1.2v24.3h-1.4c-0.9-4.1-2.1-7-3.6-8.8c-1.6-1.7-3.7-2.6-6.4-2.6h-3.7v25H723v1.8h-31v-1.8h4.8V50.6H692
			V48.8z"/>
	</g>
</g>
<g>
	<g>
		<path class="st0" d="M825.5,134.9c6,0,9.8-1.1,11.4-3.3c1.6-2.2,2.5-5.9,2.5-11.1V85.1h-11.7v-4h52.5v4h-7.1v51.4h-2.7
			c-2.2-3-5.3-4.6-9.3-4.6c-1.7,0-6.8,1.1-15.2,3.3c-8.4,2.2-15.6,3.3-21.6,3.3c-19.8,0-35.1-5.3-46-16
			c-10.9-10.7-16.3-26.8-16.3-48.2c0-21.4,5.7-38,17-49.7c11.4-11.7,26.6-17.5,45.8-17.5c7.4,0,14.9,0.9,22.3,2.8
			c7.5,1.9,11.8,2.8,13,2.8c1.2,0,2.1-0.3,2.7-0.8c0.6-0.5,1.3-1.5,2-2.8h2l1.5,39.5h-3.3c-6-11.8-11.9-21-18-27.8
			c-6-6.7-12.7-10.1-20.1-10.1c-18.6,0-27.9,18.2-27.9,54.5v14.4c0,18.2,2.3,32,6.8,41.3C810.5,130.2,817,134.9,825.5,134.9z"/>
	</g>
	<g>
		<path class="st0" d="M900.7,126.4c-7.8-8.1-11.8-19.3-11.8-33.7s4.4-25.4,13.2-33.1c8.8-7.7,20-11.5,33.6-11.5
			c27.6,0,40.8,13.9,39.7,41.6h-51.4v7.1c0,11.9,1.5,20.9,4.6,27c3,6.1,8.3,9.1,15.9,9.1c14.1,0,23.3-7.5,27.7-22.6l3.3,0.5
			c-2.3,8.7-6.5,15.6-12.5,20.4c-6,4.9-15,7.3-27.1,7.3C920.3,138.5,908.5,134.5,900.7,126.4z M924.3,86h18.8v-8.9
			c0-9.8-0.6-16.6-1.7-20.1c-1.2-3.6-3.5-5.4-6.9-5.4c-3.5,0-6,1.9-7.7,5.7c-1.6,3.8-2.5,10.4-2.5,19.8V86z"/>
	</g>
	<g>
		<path class="st0" d="M1042.9,55c-4.5,0-8.4,2.9-11.8,8.7c-3.4,5.8-5.1,12.8-5.1,20.8v48.8h12.9v3.3h-56.9v-3.3h10V53.2h-10v-3.3
			h43.9v17.5c1.6-6.2,4.6-11,9.1-14.3c4.5-3.3,9.6-5,15.3-5c5.7,0,10.4,1.6,13.9,4.8c3.6,3.2,5.4,7.8,5.4,13.7
			c0,5.9-1.3,10.4-4,13.6c-2.7,3.2-6.8,4.7-12.3,4.7c-5.5,0-9.6-1.8-12.2-5.5c-2.6-3.6-2.9-8.7-1-15.1h6.6
			C1049.8,58.1,1048.5,55,1042.9,55z"/>
	</g>
	<g>
		<path class="st0" d="M1072.3,49.9h43.9v16.8c4-12.4,12.8-18.6,26.5-18.6s22,6.6,24.9,19.7c4.2-13.1,13.2-19.7,26.8-19.7
			c17.9,0,26.8,10.1,26.8,30.4v54.9h10.2v3.3h-50.5v-3.3h6.4V74.2c0-9.2-0.8-14.6-2.4-16.2c-0.7-0.7-1.7-1.1-2.9-1.1
			c-3.5,0-6.6,2.4-9.3,7.1c-2.7,4.7-4,10.8-4,18v51.4h6.6v3.3h-46.8v-3.3h6.4V74.2c0-9.2-0.8-14.6-2.4-16.2
			c-0.7-0.7-1.7-1.1-2.9-1.1c-3.4,0-6.5,2.6-9.2,7.7c-2.7,5.2-4.1,11.3-4.1,18.5v50.3h6.6v3.3h-50.5v-3.3h10V53.2h-10V49.9z"/>
	</g>
	<g>
		<path class="st0" d="M1277.8,93.9h5.3v-14c0-11.5-0.6-19.3-1.9-23.2c-1.3-3.9-3.7-5.9-7.4-5.9c-2.2,0-4.2,0.6-5.9,1.7
			c-1.8,1.2-2.6,2.7-2.6,4.7c0,2,0.4,4,1.1,6.1h4.6c1,2.6,1.5,5.6,1.5,9.2c0,3.6-1.5,6.7-4.6,9.3c-3,2.6-6.9,3.9-11.5,3.9
			c-10.4,0-15.7-5-15.7-15.1c0-14.9,12.7-22.4,38.1-22.4c14.5,0,24.4,2.5,30,7.4c5.5,4.9,8.3,13.9,8.3,27.1v37
			c0,6.3,1.8,9.5,5.3,9.5c4.1,0,6.6-6.3,7.3-18.8l2.7,0.2c-0.5,10.7-2.5,18-6,22.1s-9.3,6-17.3,6c-14.6,0-23-4.5-25.1-13.5
			c-1.6,4.6-3.9,8-7.1,10.2c-3.2,2.2-7.8,3.3-13.9,3.3c-18,0-27-7.3-27-22.1c0-8.6,3.4-14.5,10.3-17.8
			C1253.1,95.5,1263.6,93.9,1277.8,93.9z M1271.6,128.5c0.7,1.8,1.9,2.7,3.8,2.7c1.9,0,3.6-1.5,5.3-4.6s2.5-7.4,2.5-12.8V96.8h-1.3
			c-7.5,0-11.3,5.5-11.3,16.6v2.9C1270.5,122.6,1270.9,126.7,1271.6,128.5z"/>
	</g>
	<g>
		<path class="st0" d="M1334.5,49.9h43.9v16.8c1.9-5.6,4.9-10.1,8.9-13.5c4-3.4,10.1-5.1,18.2-5.1c18.8,0,28.2,10.1,28.2,30.4v54.9
			h10.2v3.3h-51.6v-3.3h7.5V74.2c0-7.3-0.5-12-1.5-14.1c-1-2.1-2.7-3.2-5.3-3.2c-3.9,0-7.3,2.6-10.3,7.7c-3,5.1-4.5,11.3-4.5,18.6
			v50.3h7.8v3.3h-51.8v-3.3h10V53.2h-10V49.9z"/>
	</g>
	<g>
		<path class="st0" d="M1436.4,53.2v-3.3h52.8v3.3h-9.8l19.9,60.5l21.1-60.5h-12.2v-3.3h25.7v3.3h-9.1l-34.1,98.2
			c-4,11.4-8.5,19.4-13.5,24c-5,4.6-11.1,6.8-18.2,6.8c-7.2,0-12.8-1.6-16.9-4.9c-4.1-3.3-6.2-7.5-6.2-12.6c0-5.1,1.3-9,4-11.7
			c2.7-2.7,6.2-4,10.6-4c10.1,0,15.1,4.2,15.1,12.6c0,1.8-0.4,4-1.1,6.6h-6.4c-1,2.8-1.1,5.1-0.4,6.9c0.7,1.8,2.4,2.7,4.9,2.7
			c5,0,9.4-2.5,13.3-7.4c3.9-4.9,7.6-12.4,11.1-22.5l4-11.3h-16l-31.2-83.5H1436.4z"/>
	</g>
</g>
<g>
	<rect x="628.6" y="130.3" class="st0" width="109.4" height="6"/>
</g>
</svg>
