<svg width="524" height="160" viewBox="0 0 524 160" fill="none" xmlns="http://www.w3.org/2000/svg">
<g clip-path="url(#clip0)">
<path d="M157.4 79.5998C165.7 79.5998 165.7 32.7998 174 32.7998C182.3 32.7998 182.3 79.5998 190.6 79.5998" stroke="white" stroke-miterlimit="10"/>
<path d="M157.4 79.5997C165.7 79.5997 165.7 42.1997 174 42.1997C182.3 42.1997 182.3 79.5997 190.6 79.5997" stroke="white" stroke-miterlimit="10"/>
<path d="M157.4 79.6C165.7 79.6 165.7 51.5 174 51.5C182.3 51.5 182.3 79.6 190.6 79.6" stroke="white" stroke-miterlimit="10"/>
<path d="M157.4 79.5999C165.7 79.5999 165.7 60.8999 174 60.8999C182.3 60.8999 182.3 79.5999 190.6 79.5999" stroke="white" stroke-miterlimit="10"/>
<path d="M157.4 79.5997C165.7 79.5997 165.7 70.1997 174 70.1997C182.3 70.1997 182.3 79.5997 190.6 79.5997" stroke="white" stroke-miterlimit="10"/>
<path d="M157.4 79.5996C165.7 79.5996 165.7 88.9996 174 88.9996C182.3 88.9996 182.3 79.5996 190.6 79.5996" stroke="white" stroke-miterlimit="10"/>
<path d="M157.4 79.5996C165.7 79.5996 165.7 98.2996 174 98.2996C182.3 98.2996 182.3 79.5996 190.6 79.5996" stroke="white" stroke-miterlimit="10"/>
<path d="M157.4 79.5996C165.7 79.5996 165.7 107.7 174 107.7C182.3 107.7 182.3 79.5996 190.6 79.5996" stroke="white" stroke-miterlimit="10"/>
<path d="M157.4 79.5996C165.7 79.5996 165.7 117 174 117C182.3 117 182.3 79.5996 190.6 79.5996" stroke="white" stroke-miterlimit="10"/>
<path d="M157.4 79.5996C165.7 79.5996 165.7 126.4 174 126.4C182.3 126.4 182.3 79.5996 190.6 79.5996" stroke="white" stroke-miterlimit="10"/>
<path d="M124.1 79.6002C132.4 79.6002 132.4 58.7002 140.7 58.7002C149 58.7002 149 79.6002 157.3 79.6002" stroke="white" stroke-miterlimit="10"/>
<path d="M124.1 79.6003C132.4 79.6003 132.4 62.8003 140.7 62.8003C149 62.8003 149 79.6003 157.3 79.6003" stroke="white" stroke-miterlimit="10"/>
<path d="M124.1 79.6C132.4 79.6 132.4 67 140.7 67C149 67 149 79.6 157.3 79.6" stroke="white" stroke-miterlimit="10"/>
<path d="M124.1 79.6002C132.4 79.6002 132.4 71.2002 140.7 71.2002C149 71.2002 149 79.6002 157.3 79.6002" stroke="white" stroke-miterlimit="10"/>
<path d="M124.1 79.6004C132.4 79.6004 132.4 75.4004 140.7 75.4004C149 75.4004 149 79.6004 157.3 79.6004" stroke="white" stroke-miterlimit="10"/>
<path d="M124.1 79.6001C132.4 79.6001 132.4 83.8001 140.7 83.8001C149 83.8001 149 79.6001 157.3 79.6001" stroke="white" stroke-miterlimit="10"/>
<path d="M124.1 79.6001C132.4 79.6001 132.4 88.0001 140.7 88.0001C149 88.0001 149 79.6001 157.3 79.6001" stroke="white" stroke-miterlimit="10"/>
<path d="M124.1 79.6001C132.4 79.6001 132.4 92.2001 140.7 92.2001C149 92.2001 149 79.6001 157.3 79.6001" stroke="white" stroke-miterlimit="10"/>
<path d="M124.1 79.6001C132.4 79.6001 132.4 96.4001 140.7 96.4001C149 96.4001 149 79.6001 157.3 79.6001" stroke="white" stroke-miterlimit="10"/>
<path d="M124.1 79.6001C132.4 79.6001 132.4 100.5 140.7 100.5C149 100.5 149 79.6001 157.3 79.6001" stroke="white" stroke-miterlimit="10"/>
<path d="M90.7998 79.6002C99.0998 79.6002 99.0998 16.2002 107.4 16.2002C115.7 16.2002 115.7 79.6002 124 79.6002" stroke="white" stroke-miterlimit="10"/>
<path d="M90.7998 79.6003C99.0998 79.6003 99.0998 28.8003 107.4 28.8003C115.7 28.8003 115.7 79.6003 124 79.6003" stroke="white" stroke-miterlimit="10"/>
<path d="M90.7998 79.6C99.0998 79.6 99.0998 41.5 107.4 41.5C115.7 41.5 115.7 79.6 124 79.6" stroke="white" stroke-miterlimit="10"/>
<path d="M90.7998 79.6002C99.0998 79.6002 99.0998 54.2002 107.4 54.2002C115.7 54.2002 115.7 79.6002 124 79.6002" stroke="white" stroke-miterlimit="10"/>
<path d="M90.7998 79.6004C99.0998 79.6004 99.0998 66.9004 107.4 66.9004C115.7 66.9004 115.7 79.6004 124 79.6004" stroke="white" stroke-miterlimit="10"/>
<path d="M90.7998 79.6001C99.0998 79.6001 99.0998 92.3001 107.4 92.3001C115.7 92.3001 115.7 79.6001 124 79.6001" stroke="white" stroke-miterlimit="10"/>
<path d="M90.7998 79.6001C99.0998 79.6001 99.0998 105 107.4 105C115.7 105 115.7 79.6001 124 79.6001" stroke="white" stroke-miterlimit="10"/>
<path d="M90.7998 79.6001C99.0998 79.6001 99.0998 117.7 107.4 117.7C115.7 117.7 115.7 79.6001 124 79.6001" stroke="white" stroke-miterlimit="10"/>
<path d="M90.7998 79.6001C99.0998 79.6001 99.0998 130.4 107.4 130.4C115.7 130.4 115.7 79.6001 124 79.6001" stroke="white" stroke-miterlimit="10"/>
<path d="M90.7998 79.6001C99.0998 79.6001 99.0998 143 107.4 143C115.7 143 115.7 79.6001 124 79.6001" stroke="white" stroke-miterlimit="10"/>
<path d="M57.5 79.6002C65.8 79.6002 65.8 44.7002 74.1 44.7002C82.4 44.7002 82.4 79.6002 90.7 79.6002" stroke="white" stroke-miterlimit="10"/>
<path d="M57.5 79.6002C65.8 79.6002 65.8 51.7002 74.1 51.7002C82.4 51.7002 82.4 79.6002 90.7 79.6002" stroke="white" stroke-miterlimit="10"/>
<path d="M57.5 79.6002C65.8 79.6002 65.8 58.7002 74.1 58.7002C82.4 58.7002 82.4 79.6002 90.7 79.6002" stroke="white" stroke-miterlimit="10"/>
<path d="M57.5 79.6001C65.8 79.6001 65.8 65.6001 74.1 65.6001C82.4 65.6001 82.4 79.6001 90.7 79.6001" stroke="white" stroke-miterlimit="10"/>
<path d="M57.5 79.6001C65.8 79.6001 65.8 72.6001 74.1 72.6001C82.4 72.6001 82.4 79.6001 90.7 79.6001" stroke="white" stroke-miterlimit="10"/>
<path d="M57.5 79.6001C65.8 79.6001 65.8 86.6001 74.1 86.6001C82.4 86.6001 82.4 79.6001 90.7 79.6001" stroke="white" stroke-miterlimit="10"/>
<path d="M57.5 79.6001C65.8 79.6001 65.8 93.6001 74.1 93.6001C82.4 93.6001 82.4 79.6001 90.7 79.6001" stroke="white" stroke-miterlimit="10"/>
<path d="M57.5 79.6001C65.8 79.6001 65.8 100.5 74.1 100.5C82.4 100.5 82.4 79.6001 90.7 79.6001" stroke="white" stroke-miterlimit="10"/>
<path d="M57.5 79.6001C65.8 79.6001 65.8 107.5 74.1 107.5C82.4 107.5 82.4 79.6001 90.7 79.6001" stroke="white" stroke-miterlimit="10"/>
<path d="M57.5 79.6001C65.8 79.6001 65.8 114.5 74.1 114.5C82.4 114.5 82.4 79.6001 90.7 79.6001" stroke="white" stroke-miterlimit="10"/>
<path d="M24.2002 79.6001C32.5002 79.6001 32.5002 65.6001 40.8002 65.6001C49.1002 65.6001 49.1002 79.6001 57.4002 79.6001" stroke="white" stroke-miterlimit="10"/>
<path d="M24.2002 79.5999C32.5002 79.5999 32.5002 68.3999 40.8002 68.3999C49.1002 68.3999 49.1002 79.5999 57.4002 79.5999" stroke="white" stroke-miterlimit="10"/>
<path d="M24.2002 79.6002C32.5002 79.6002 32.5002 71.2002 40.8002 71.2002C49.1002 71.2002 49.1002 79.6002 57.4002 79.6002" stroke="white" stroke-miterlimit="10"/>
<path d="M24.2002 79.6C32.5002 79.6 32.5002 74 40.8002 74C49.1002 74 49.1002 79.6 57.4002 79.6" stroke="white" stroke-miterlimit="10"/>
<path d="M24.2002 79.6003C32.5002 79.6003 32.5002 76.8003 40.8002 76.8003C49.1002 76.8003 49.1002 79.6003 57.4002 79.6003" stroke="white" stroke-miterlimit="10"/>
<path d="M24.2002 79.6001C32.5002 79.6001 32.5002 82.4001 40.8002 82.4001C49.1002 82.4001 49.1002 79.6001 57.4002 79.6001" stroke="white" stroke-miterlimit="10"/>
<path d="M24.2002 79.6001C32.5002 79.6001 32.5002 85.2001 40.8002 85.2001C49.1002 85.2001 49.1002 79.6001 57.4002 79.6001" stroke="white" stroke-miterlimit="10"/>
<path d="M24.2002 79.6001C32.5002 79.6001 32.5002 88.0001 40.8002 88.0001C49.1002 88.0001 49.1002 79.6001 57.4002 79.6001" stroke="white" stroke-miterlimit="10"/>
<path d="M24.2002 79.6001C32.5002 79.6001 32.5002 90.8001 40.8002 90.8001C49.1002 90.8001 49.1002 79.6001 57.4002 79.6001" stroke="white" stroke-miterlimit="10"/>
<path d="M24.2002 79.6001C32.5002 79.6001 32.5002 93.6001 40.8002 93.6001C49.1002 93.6001 49.1002 79.6001 57.4002 79.6001" stroke="white" stroke-miterlimit="10"/>
<path d="M332.5 79.6001C340.8 79.6001 340.8 32.1001 349.1 32.1001C357.4 32.1001 357.4 79.6001 365.7 79.6001" stroke="white" stroke-miterlimit="10"/>
<path d="M332.5 79.6001C340.8 79.6001 340.8 41.6001 349.1 41.6001C357.4 41.6001 357.4 79.6001 365.7 79.6001" stroke="white" stroke-miterlimit="10"/>
<path d="M332.5 79.6001C340.8 79.6001 340.8 51.1001 349.1 51.1001C357.4 51.1001 357.4 79.6001 365.7 79.6001" stroke="white" stroke-miterlimit="10"/>
<path d="M332.5 79.6001C340.8 79.6001 340.8 60.6001 349.1 60.6001C357.4 60.6001 357.4 79.6001 365.7 79.6001" stroke="white" stroke-miterlimit="10"/>
<path d="M332.5 79.6001C340.8 79.6001 340.8 70.1001 349.1 70.1001C357.4 70.1001 357.4 79.6001 365.7 79.6001" stroke="white" stroke-miterlimit="10"/>
<path d="M332.5 79.6001C340.8 79.6001 340.8 89.1001 349.1 89.1001C357.4 89.1001 357.4 79.6001 365.7 79.6001" stroke="white" stroke-miterlimit="10"/>
<path d="M332.5 79.6001C340.8 79.6001 340.8 98.6001 349.1 98.6001C357.4 98.6001 357.4 79.6001 365.7 79.6001" stroke="white" stroke-miterlimit="10"/>
<path d="M332.5 79.6001C340.8 79.6001 340.8 108.1 349.1 108.1C357.4 108.1 357.4 79.6001 365.7 79.6001" stroke="white" stroke-miterlimit="10"/>
<path d="M332.5 79.6001C340.8 79.6001 340.8 117.6 349.1 117.6C357.4 117.6 357.4 79.6001 365.7 79.6001" stroke="white" stroke-miterlimit="10"/>
<path d="M332.5 79.6001C340.8 79.6001 340.8 127.1 349.1 127.1C357.4 127.1 357.4 79.6001 365.7 79.6001" stroke="white" stroke-miterlimit="10"/>
<path d="M365.8 79.5998C374.1 79.5998 374.1 55.2998 382.4 55.2998C390.7 55.2998 390.7 79.5998 399 79.5998" stroke="white" stroke-miterlimit="10"/>
<path d="M365.8 79.5997C374.1 79.5997 374.1 60.1997 382.4 60.1997C390.7 60.1997 390.7 79.5997 399 79.5997" stroke="white" stroke-miterlimit="10"/>
<path d="M365.8 79.6C374.1 79.6 374.1 65 382.4 65C390.7 65 390.7 79.6 399 79.6" stroke="white" stroke-miterlimit="10"/>
<path d="M365.8 79.5999C374.1 79.5999 374.1 69.8999 382.4 69.8999C390.7 69.8999 390.7 79.5999 399 79.5999" stroke="white" stroke-miterlimit="10"/>
<path d="M365.8 79.5997C374.1 79.5997 374.1 74.6997 382.4 74.6997C390.7 74.6997 390.7 79.5997 399 79.5997" stroke="white" stroke-miterlimit="10"/>
<path d="M365.8 79.5996C374.1 79.5996 374.1 84.4996 382.4 84.4996C390.7 84.4996 390.7 79.5996 399 79.5996" stroke="white" stroke-miterlimit="10"/>
<path d="M365.8 79.5996C374.1 79.5996 374.1 89.2996 382.4 89.2996C390.7 89.2996 390.7 79.5996 399 79.5996" stroke="white" stroke-miterlimit="10"/>
<path d="M365.8 79.5996C374.1 79.5996 374.1 94.1996 382.4 94.1996C390.7 94.1996 390.7 79.5996 399 79.5996" stroke="white" stroke-miterlimit="10"/>
<path d="M365.8 79.5996C374.1 79.5996 374.1 98.9996 382.4 98.9996C390.7 98.9996 390.7 79.5996 399 79.5996" stroke="white" stroke-miterlimit="10"/>
<path d="M365.8 79.5996C374.1 79.5996 374.1 103.9 382.4 103.9C390.7 103.9 390.7 79.5996 399 79.5996" stroke="white" stroke-miterlimit="10"/>
<path d="M399.1 79.6C407.4 79.6 407.4 0.5 415.7 0.5C424 0.5 424 79.6 432.3 79.6" stroke="white" stroke-miterlimit="10"/>
<path d="M399.1 79.5998C407.4 79.5998 407.4 16.2998 415.7 16.2998C424 16.2998 424 79.5998 432.3 79.5998" stroke="white" stroke-miterlimit="10"/>
<path d="M399.1 79.6001C407.4 79.6001 407.4 32.1001 415.7 32.1001C424 32.1001 424 79.6001 432.3 79.6001" stroke="white" stroke-miterlimit="10"/>
<path d="M399.1 79.5999C407.4 79.5999 407.4 47.8999 415.7 47.8999C424 47.8999 424 79.5999 432.3 79.5999" stroke="white" stroke-miterlimit="10"/>
<path d="M399.1 79.5998C407.4 79.5998 407.4 63.7998 415.7 63.7998C424 63.7998 424 79.5998 432.3 79.5998" stroke="white" stroke-miterlimit="10"/>
<path d="M399.1 79.6001C407.4 79.6001 407.4 95.4001 415.7 95.4001C424 95.4001 424 79.6001 432.3 79.6001" stroke="white" stroke-miterlimit="10"/>
<path d="M399.1 79.6001C407.4 79.6001 407.4 111.3 415.7 111.3C424 111.3 424 79.6001 432.3 79.6001" stroke="white" stroke-miterlimit="10"/>
<path d="M399.1 79.6001C407.4 79.6001 407.4 127.1 415.7 127.1C424 127.1 424 79.6001 432.3 79.6001" stroke="white" stroke-miterlimit="10"/>
<path d="M399.1 79.6001C407.4 79.6001 407.4 142.9 415.7 142.9C424 142.9 424 79.6001 432.3 79.6001" stroke="white" stroke-miterlimit="10"/>
<path d="M399.1 79.6001C407.4 79.6001 407.4 158.7 415.7 158.7C424 158.7 424 79.6001 432.3 79.6001" stroke="white" stroke-miterlimit="10"/>
<path d="M432.4 79.6C440.7 79.6 440.7 28 449 28C457.3 28 457.3 79.6 465.6 79.6" stroke="white" stroke-miterlimit="10"/>
<path d="M432.4 79.5998C440.7 79.5998 440.7 38.2998 449 38.2998C457.3 38.2998 457.3 79.5998 465.6 79.5998" stroke="white" stroke-miterlimit="10"/>
<path d="M432.4 79.6002C440.7 79.6002 440.7 48.7002 449 48.7002C457.3 48.7002 457.3 79.6002 465.6 79.6002" stroke="white" stroke-miterlimit="10"/>
<path d="M432.4 79.6C440.7 79.6 440.7 59 449 59C457.3 59 457.3 79.6 465.6 79.6" stroke="white" stroke-miterlimit="10"/>
<path d="M432.4 79.5998C440.7 79.5998 440.7 69.2998 449 69.2998C457.3 69.2998 457.3 79.5998 465.6 79.5998" stroke="white" stroke-miterlimit="10"/>
<path d="M432.4 79.6001C440.7 79.6001 440.7 89.9001 449 89.9001C457.3 89.9001 457.3 79.6001 465.6 79.6001" stroke="white" stroke-miterlimit="10"/>
<path d="M432.4 79.6001C440.7 79.6001 440.7 100.2 449 100.2C457.3 100.2 457.3 79.6001 465.6 79.6001" stroke="white" stroke-miterlimit="10"/>
<path d="M432.4 79.6001C440.7 79.6001 440.7 110.5 449 110.5C457.3 110.5 457.3 79.6001 465.6 79.6001" stroke="white" stroke-miterlimit="10"/>
<path d="M432.4 79.6001C440.7 79.6001 440.7 120.9 449 120.9C457.3 120.9 457.3 79.6001 465.6 79.6001" stroke="white" stroke-miterlimit="10"/>
<path d="M432.4 79.6001C440.7 79.6001 440.7 131.2 449 131.2C457.3 131.2 457.3 79.6001 465.6 79.6001" stroke="white" stroke-miterlimit="10"/>
<path d="M465.6 79.6002C473.9 79.6002 473.9 55.2002 482.2 55.2002C490.5 55.2002 490.5 79.6002 498.8 79.6002" stroke="white" stroke-miterlimit="10"/>
<path d="M465.6 79.6001C473.9 79.6001 473.9 60.1001 482.2 60.1001C490.5 60.1001 490.5 79.6001 498.8 79.6001" stroke="white" stroke-miterlimit="10"/>
<path d="M465.6 79.6C473.9 79.6 473.9 65 482.2 65C490.5 65 490.5 79.6 498.8 79.6" stroke="white" stroke-miterlimit="10"/>
<path d="M465.6 79.6003C473.9 79.6003 473.9 69.8003 482.2 69.8003C490.5 69.8003 490.5 79.6003 498.8 79.6003" stroke="white" stroke-miterlimit="10"/>
<path d="M465.6 79.6002C473.9 79.6002 473.9 74.7002 482.2 74.7002C490.5 74.7002 490.5 79.6002 498.8 79.6002" stroke="white" stroke-miterlimit="10"/>
<path d="M465.6 79.6001C473.9 79.6001 473.9 84.5001 482.2 84.5001C490.5 84.5001 490.5 79.6001 498.8 79.6001" stroke="white" stroke-miterlimit="10"/>
<path d="M465.6 79.6001C473.9 79.6001 473.9 89.4001 482.2 89.4001C490.5 89.4001 490.5 79.6001 498.8 79.6001" stroke="white" stroke-miterlimit="10"/>
<path d="M465.6 79.6001C473.9 79.6001 473.9 94.2001 482.2 94.2001C490.5 94.2001 490.5 79.6001 498.8 79.6001" stroke="white" stroke-miterlimit="10"/>
<path d="M465.6 79.6001C473.9 79.6001 473.9 99.1001 482.2 99.1001C490.5 99.1001 490.5 79.6001 498.8 79.6001" stroke="white" stroke-miterlimit="10"/>
<path d="M465.6 79.6001C473.9 79.6001 473.9 104 482.2 104C490.5 104 490.5 79.6001 498.8 79.6001" stroke="white" stroke-miterlimit="10"/>
<path d="M190.7 79.6C226.2 79.6 226.2 43 261.6 43C297.1 43 297.1 79.6 332.5 79.6" stroke="white" stroke-miterlimit="10"/>
<path d="M190.7 79.6001C226.2 79.6001 226.2 116.2 261.6 116.2C297.1 116.2 297.1 79.6001 332.5 79.6001" stroke="white" stroke-miterlimit="10"/>
<path d="M190.7 79.6001H0" stroke="white" stroke-miterlimit="10"/>
<path d="M523.2 79.6001H332.5" stroke="white" stroke-miterlimit="10"/>
<path d="M270.9 79.6001L254.4 70.1001V89.1001L270.9 79.6001Z" stroke="white" stroke-miterlimit="10"/>
</g>
<defs>
<clipPath id="clip0">
<rect width="523.2" height="159.3" fill="white"/>
</clipPath>
</defs>
</svg>
