<?xml version="1.0" encoding="utf-8"?>
<!-- Generator: Adobe Illustrator 24.3.0, SVG Export Plug-In . SVG Version: 6.00 Build 0)  -->
<svg version="1.1"
	 id="svg115845" inkscape:version="0.44" sodipodi:docbase="C:\Dokumente und Einstellungen\Andreas\Eigene Dateien\Eigene Bilder\sonstiges\Logos\Vektor" sodipodi:docname="Sennheiser-Logo.svg" sodipodi:version="0.32" xmlns:cc="http://web.resource.org/cc/" xmlns:dc="http://purl.org/dc/elements/1.1/" xmlns:inkscape="http://www.inkscape.org/namespaces/inkscape" xmlns:rdf="http://www.w3.org/1999/02/22-rdf-syntax-ns#" xmlns:sodipodi="http://sodipodi.sourceforge.net/DTD/sodipodi-0.dtd" xmlns:svg="http://www.w3.org/2000/svg"
	 xmlns="http://www.w3.org/2000/svg" xmlns:xlink="http://www.w3.org/1999/xlink" x="0px" y="0px" viewBox="0 0 750.7 156"
	 style="enable-background:new 0 0 750.7 156;" xml:space="preserve">
<style type="text/css">
	.st0{fill:#FFFFFF;}
</style>
<sodipodi:namedview  bordercolor="#666666" borderopacity="1.0" id="base" inkscape:current-layer="layer1" inkscape:cx="350" inkscape:cy="97.718912" inkscape:document-units="px" inkscape:pageopacity="0.0" inkscape:pageshadow="2" inkscape:window-height="574" inkscape:window-width="904" inkscape:window-x="141" inkscape:window-y="185" inkscape:zoom="0.35" pagecolor="#ffffff">
	</sodipodi:namedview>
<g>
	<path class="st0" d="M0,156h208V0H0V156z M137.8,82.2c19.3-42.3,30-51.4,59.1-51.4v114.4H94c-0.7,0-1.2-0.5-1.4-1.1
		c-0.1-0.7,0.2-1.3,0.9-1.5c12.4-4.7,24.2-16.1,33.8-37.2C130.1,99.3,135.4,87.5,137.8,82.2z M11.1,10.8H114l0,0
		c0.7,0,1.2,0.5,1.4,1.1c0.1,0.7-0.2,1.3-0.9,1.5c-12.4,4.7-24.2,16.1-33.8,37.2c-2.8,6.1-8,17.9-10.4,23.2
		c-19.3,42.3-30,51.4-59.1,51.4L11.1,10.8L11.1,10.8z"/>
	<path class="st0" d="M409.4,10.8h-9.8V44h-0.1c0,0-1-2.5-2.9-5.7l-17.2-27.5H368v50.6h9.8V29.8h0.2c0,0,2.1,4.4,4.6,8.4L397,61.4
		h12.4V10.8z"/>
	<polygon class="st0" points="354.5,52.9 332.6,52.9 332.6,39.4 348.7,39.4 348.7,31.8 332.6,31.8 332.6,18.6 354.2,18.6 
		354.2,10.8 320.1,10.8 320.1,61.4 354.5,61.4 	"/>
	<polygon class="st0" points="674.1,39.4 690.3,39.4 690.3,31.8 674.1,31.8 674.1,18.6 695.7,18.6 695.7,10.8 661.7,10.8 
		661.7,61.4 696.1,61.4 696.1,52.9 674.1,52.9 	"/>
	<path class="st0" d="M738.6,39.2c6.8-2.3,9.8-8.6,9.8-13.7c0-7.9-5.1-14.7-16-14.7h-22.7v50.6h12.4V40.6h5.4l9.7,20.8h13.5
		L738.6,39.2z M729.6,33H722V18.6h7.7c6.5,0,7.9,4.9,7.9,7.2C737.7,28,736.4,33,729.6,33z"/>
	<path class="st0" d="M309.6,49.5c0-3.3-0.8-5.6-5.2-10.1l-16.7-17c-1.4-1.4-0.2-3.7,1.9-3.7h18.5v-7.8h-21.9
		c-6.5,0-11.1,5.1-11.1,10.1c0,3,0.2,5.1,4.7,9.8l16.5,17.3c2.3,2.4,0.6,5-1.9,5H274v8.4h23.2C303.4,61.4,309.6,56.9,309.6,49.5z"/>
	<path class="st0" d="M629.2,22.3c-1.4-1.4-0.2-3.7,1.9-3.7h18.5v-7.8h-21.9c-6.5,0-11.1,5.1-11.1,10.1c0,3,0.2,5.1,4.7,9.8
		L637.8,48c2.3,2.4,0.6,5-1.9,5h-20.4v8.4h23.2c6.2,0,12.4-4.5,12.4-11.9c0-3.3-0.8-5.6-5.2-10.2L629.2,22.3z"/>
	<path class="st0" d="M467.9,10.8h-9.8V44H458c0,0-1-2.5-2.9-5.7l-17.2-27.5h-11.5v50.6h9.8V29.8l0.2-0.1c0,0,2.1,4.4,4.6,8.4
		l14.5,23.3h12.4V10.8z"/>
	<polygon class="st0" points="526.8,61.4 526.8,10.8 514.3,10.8 514.3,31.5 497.3,31.5 497.3,10.8 484.9,10.8 484.9,61.4 
		497.3,61.4 497.3,39.8 514.3,39.8 514.3,61.4 	"/>
	<rect x="591.7" y="10.8" class="st0" width="12.4" height="50.6"/>
	<polygon class="st0" points="556.2,39.4 572.3,39.4 572.3,31.8 556.2,31.8 556.2,18.6 577.8,18.6 577.8,10.8 543.8,10.8 
		543.8,61.4 578.2,61.4 578.2,52.9 556.2,52.9 	"/>
	<rect x="464.5" y="94.6" class="st0" width="37.7" height="5.5"/>
	<path class="st0" d="M542.1,93.8c-14.3,0-22.9,9.9-22.9,26.2s8.6,26.2,22.9,26.2c14.3,0,22.9-9.9,22.9-26.2
		C565,103.6,556.4,93.8,542.1,93.8z M542.1,140.6c-10.1,0-16.3-7.1-16.3-20.7s6.2-20.7,16.3-20.7c10,0,16.3,7.1,16.3,20.7
		C558.4,133.5,552.1,140.6,542.1,140.6z"/>
	<path class="st0" d="M437.3,119.3c-0.4-0.1-0.6-0.4-0.6-0.6c0-0.3,0.2-0.5,0.5-0.6c3.4-2.1,6.4-5.1,6.4-10.3c0-8.5-6.1-13-16.1-13
		h-18.4v50.6H428c11.5,0,17.9-5,17.9-14.6C445.8,124.4,441.8,120.4,437.3,119.3z M415.4,100.1h12.2c6.6,0,9.6,3.1,9.6,8.1
		c0,4.8-3.1,8.1-9.2,8.1h-12.5v-16.2H415.4z M428,139.7h-12.5v-18H428c7.6,0,11.5,2.4,11.5,8.9C439.4,136.8,434.7,139.7,428,139.7z"
		/>
	<path class="st0" d="M360.6,121.3c0,0-0.2,0.3-0.6,0.3s-0.6-0.3-0.6-0.3l-14.9-26.7h-9.8v50.6h6v-42.7c0-0.4,0.3-0.7,0.6-0.7
		c0.3,0,0.5,0.1,0.6,0.4l14.9,26.7h6.3l14.9-26.7c0.1-0.2,0.3-0.4,0.6-0.4c0.4,0,0.6,0.3,0.6,0.7v42.7h6V94.6h-9.8L360.6,121.3z"/>
	<rect x="464.5" y="139.7" class="st0" width="37.7" height="5.5"/>
	<path class="st0" d="M291.1,94.6L272,145.2h6.2l5.3-14.6h22l5.5,14.6h6.5l-19.2-50.6H291.1z M285.5,125.1l8.3-22.6
		c0.1-0.4,0.4-0.5,0.6-0.5c0.3,0,0.5,0.1,0.6,0.5l8.4,22.6H285.5z"/>
	<rect x="469.2" y="116.6" class="st0" width="28.3" height="5.4"/>
</g>
</svg>
